REM DIRINDEX 1\2\6,1\2\7,1\2\8,1\3\9,1\3\10,1\3\11,1\4\12,1\4\13,1\4\14,1\5\15,1\5\16,1\5\17,1\5\18
REM DIRNAME folder01,folder02,folder03,folder04,folder05,folder06,folder07,folder08,folder09,folder10,folder11,folder12,folder13,folder14,folder15,folder16,folder17,folder18
TITLE ""
FILE "" MP3
  TRACK 01 AUDIO
    TITLE "15:cjc019_7755"
    INDEX 01 00:00:00
  TRACK 02 AUDIO
    TITLE "0:"
    INDEX 01 00:09:12
  TRACK 03 AUDIO
    TITLE "16:cjc019_7756"
    INDEX 01 00:10:27
  TRACK 04 AUDIO
    TITLE "0:"
    INDEX 01 00:11:54
  TRACK 05 AUDIO
    TITLE "18:cjc019_7757"
    INDEX 01 00:12:44
  TRACK 06 AUDIO
    TITLE "0:"
    INDEX 01 00:13:59
  TRACK 07 AUDIO
    TITLE "17:cjc019_7758"
    INDEX 01 00:14:33
  TRACK 08 AUDIO
    TITLE "0:"
    INDEX 01 00:15:64
  TRACK 09 AUDIO
    TITLE "16:cjc019_7759"
    INDEX 01 00:17:51
  TRACK 10 AUDIO
    TITLE "0:"
    INDEX 01 00:18:58
  TRACK 11 AUDIO
    TITLE "18:cjc019_7760"
    INDEX 01 00:19:42
  TRACK 12 AUDIO
    TITLE "0:"
    INDEX 01 00:23:06
  TRACK 13 AUDIO
    TITLE "17:cjc019_7761"
    INDEX 01 00:23:61
  TRACK 14 AUDIO
    TITLE "0:"
    INDEX 01 00:24:65
  TRACK 15 AUDIO
    TITLE "16:cjc019_7762"
    INDEX 01 00:26:54
  TRACK 16 AUDIO
    TITLE "0:"
    INDEX 01 00:28:04
  TRACK 17 AUDIO
    TITLE "18:cjc019_7763"
    INDEX 01 00:28:60
  TRACK 18 AUDIO
    TITLE "0:"
    INDEX 01 00:31:37
  TRACK 19 AUDIO
    TITLE "17:cjc019_7764"
    INDEX 01 00:32:11
  TRACK 20 AUDIO
    TITLE "0:"
    INDEX 01 00:33:36
  TRACK 21 AUDIO
    TITLE "16:cjc019_7765"
    INDEX 01 00:35:19
  TRACK 22 AUDIO
    TITLE "0:"
    INDEX 01 00:36:31
  TRACK 23 AUDIO
    TITLE "18:cjc019_7766"
    INDEX 01 00:37:18
  TRACK 24 AUDIO
    TITLE "0:"
    INDEX 01 00:38:47
  TRACK 25 AUDIO
    TITLE "17:cjc019_7767"
    INDEX 01 00:39:19
  TRACK 26 AUDIO
    TITLE "0:"
    INDEX 01 00:40:38
  TRACK 27 AUDIO
    TITLE "16:cjc019_7768"
    INDEX 01 00:42:23
  TRACK 28 AUDIO
    TITLE "0:"
    INDEX 01 00:43:42
  TRACK 29 AUDIO
    TITLE "18:cjc019_7769"
    INDEX 01 00:44:16
  TRACK 30 AUDIO
    TITLE "0:"
    INDEX 01 00:45:53
  TRACK 31 AUDIO
    TITLE "17:cjc019_7770"
    INDEX 01 00:46:33
  TRACK 32 AUDIO
    TITLE "0:"
    INDEX 01 00:47:50
  TRACK 33 AUDIO
    TITLE "16:cjc019_7771"
    INDEX 01 00:49:39
  TRACK 34 AUDIO
    TITLE "0:"
    INDEX 01 00:50:56
  TRACK 35 AUDIO
    TITLE "18:cjc019_7772"
    INDEX 01 00:51:40
  TRACK 36 AUDIO
    TITLE "0:"
    INDEX 01 00:52:53
  TRACK 37 AUDIO
    TITLE "17:cjc019_7773"
    INDEX 01 00:53:27
  TRACK 38 AUDIO
    TITLE "0:"
    INDEX 01 00:54:44
  TRACK 39 AUDIO
    TITLE "16:cjc019_7774"
    INDEX 01 00:56:29
  TRACK 40 AUDIO
    TITLE "0:"
    INDEX 01 00:57:60
  TRACK 41 AUDIO
    TITLE "18:cjc019_7775"
    INDEX 01 00:58:44
  TRACK 42 AUDIO
    TITLE "0:"
    INDEX 01 01:01:05
  TRACK 43 AUDIO
    TITLE "17:cjc019_7776"
    INDEX 01 01:01:62
  TRACK 44 AUDIO
    TITLE "0:"
    INDEX 01 01:03:16
  TRACK 45 AUDIO
    TITLE "16:cjc019_7777"
    INDEX 01 01:05:07
  TRACK 46 AUDIO
    TITLE "0:"
    INDEX 01 01:06:38
  TRACK 47 AUDIO
    TITLE "18:cjc019_7778"
    INDEX 01 01:07:14
  TRACK 48 AUDIO
    TITLE "0:"
    INDEX 01 01:09:50
  TRACK 49 AUDIO
    TITLE "17:cjc019_7779"
    INDEX 01 01:10:28
  TRACK 50 AUDIO
    TITLE "0:"
    INDEX 01 01:11:62
  TRACK 51 AUDIO
    TITLE "16:cjc019_7780"
    INDEX 01 01:13:42
  TRACK 52 AUDIO
    TITLE "0:"
    INDEX 01 01:14:55
  TRACK 53 AUDIO
    TITLE "18:cjc019_7781"
    INDEX 01 01:15:44
  TRACK 54 AUDIO
    TITLE "0:"
    INDEX 01 01:17:00
  TRACK 55 AUDIO
    TITLE "17:cjc019_7782"
    INDEX 01 01:17:55
  TRACK 56 AUDIO
    TITLE "0:"
    INDEX 01 01:18:74
  TRACK 57 AUDIO
    TITLE "16:cjc019_7783"
    INDEX 01 01:20:59
  TRACK 58 AUDIO
    TITLE "0:"
    INDEX 01 01:22:05
  TRACK 59 AUDIO
    TITLE "18:cjc019_7784"
    INDEX 01 01:22:60
  TRACK 60 AUDIO
    TITLE "0:"
    INDEX 01 01:24:16
  TRACK 61 AUDIO
    TITLE "17:cjc019_7785"
    INDEX 01 01:24:71
  TRACK 62 AUDIO
    TITLE "0:"
    INDEX 01 01:26:23
  TRACK 63 AUDIO
    TITLE "16:cjc019_7786"
    INDEX 01 01:28:02
  TRACK 64 AUDIO
    TITLE "0:"
    INDEX 01 01:29:11
  TRACK 65 AUDIO
    TITLE "18:cjc019_7787"
    INDEX 01 01:29:70
  TRACK 66 AUDIO
    TITLE "0:"
    INDEX 01 01:31:10
  TRACK 67 AUDIO
    TITLE "17:cjc019_7788"
    INDEX 01 01:31:59
  TRACK 68 AUDIO
    TITLE "0:"
    INDEX 01 01:32:74
  TRACK 69 AUDIO
    TITLE "16:cjc019_7789"
    INDEX 01 01:34:57
  TRACK 70 AUDIO
    TITLE "0:"
    INDEX 01 01:36:11
  TRACK 71 AUDIO
    TITLE "18:cjc019_7790"
    INDEX 01 01:36:74
  TRACK 72 AUDIO
    TITLE "0:"
    INDEX 01 01:40:36
  TRACK 73 AUDIO
    TITLE "17:cjc019_7791"
    INDEX 01 01:41:16
  TRACK 74 AUDIO
    TITLE "0:"
    INDEX 01 01:42:45
  TRACK 75 AUDIO
    TITLE "16:cjc019_7792"
    INDEX 01 01:44:26
  TRACK 76 AUDIO
    TITLE "0:"
    INDEX 01 01:45:26
  TRACK 77 AUDIO
    TITLE "18:cjc019_7793"
    INDEX 01 01:46:12
  TRACK 78 AUDIO
    TITLE "0:"
    INDEX 01 01:49:59
  TRACK 79 AUDIO
    TITLE "17:cjc019_7794"
    INDEX 01 01:50:41
  TRACK 80 AUDIO
    TITLE "0:"
    INDEX 01 01:51:44
  TRACK 81 AUDIO
    TITLE "16:cjc019_7795"
    INDEX 01 01:53:31
  TRACK 82 AUDIO
    TITLE "0:"
    INDEX 01 01:54:70
  TRACK 83 AUDIO
    TITLE "18:cjc019_7796"
    INDEX 01 01:55:58
  TRACK 84 AUDIO
    TITLE "0:"
    INDEX 01 01:58:50
  TRACK 85 AUDIO
    TITLE "17:cjc019_7797"
    INDEX 01 01:59:34
  TRACK 86 AUDIO
    TITLE "0:"
    INDEX 01 02:00:74
  TRACK 87 AUDIO
    TITLE "16:cjc019_7798"
    INDEX 01 02:02:58
  TRACK 88 AUDIO
    TITLE "0:"
    INDEX 01 02:04:04
  TRACK 89 AUDIO
    TITLE "18:cjc019_7799"
    INDEX 01 02:04:68
  TRACK 90 AUDIO
    TITLE "0:"
    INDEX 01 02:07:39
  TRACK 91 AUDIO
    TITLE "17:cjc019_7800"
    INDEX 01 02:08:19
  TRACK 92 AUDIO
    TITLE "0:"
    INDEX 01 02:09:44
  TRACK 93 AUDIO
    TITLE "16:cjc019_7801"
    INDEX 01 02:11:29
  TRACK 94 AUDIO
    TITLE "0:"
    INDEX 01 02:12:50
  TRACK 95 AUDIO
    TITLE "18:cjc019_7802"
    INDEX 01 02:13:36
  TRACK 96 AUDIO
    TITLE "0:"
    INDEX 01 02:16:64
  TRACK 97 AUDIO
    TITLE "17:cjc019_7803"
    INDEX 01 02:17:47
  TRACK 98 AUDIO
    TITLE "0:"
    INDEX 01 02:18:74
  TRACK 99 AUDIO
    TITLE "16:cjc019_7804"
    INDEX 01 02:20:63
  TRACK 100 AUDIO
    TITLE "0:"
    INDEX 01 02:22:04
  TRACK 101 AUDIO
    TITLE "18:cjc019_7805"
    INDEX 01 02:22:64
  TRACK 102 AUDIO
    TITLE "0:"
    INDEX 01 02:25:23
  TRACK 103 AUDIO
    TITLE "17:cjc019_7806"
    INDEX 01 02:26:03
  TRACK 104 AUDIO
    TITLE "0:"
    INDEX 01 02:27:24
